<svg width="580" height="400" xmlns="http://www.w3.org/2000/svg">
 <!-- Created with Method Draw - http://github.com/duopixel/Method-Draw/ -->

 <g>
  <title>background</title>
  <rect fill="#fff" id="canvas_background" height="402" width="582" y="-1" x="-1"/>
  <g display="none" overflow="visible" y="0" x="0" height="100%" width="100%" id="canvasGrid">
   <rect fill="url(#gridpattern)" stroke-width="0" y="0" x="0" height="100%" width="100%"/>
  </g>
 </g>
 <g>
  <title>Layer 1</title>
  <metadata transform="matrix(0.01142811317647491,0,0,0.01142811317647491,0,0) " id="svg_37">image/svg+xml</metadata>

  <g stroke="null" id="svg_39">
   <path stroke="null" fill="#b1b3b4" fill-rule="evenodd" d="m53.5451,149.028649c-17.298082,-2.98033 -29.905478,-8.08922 -37.82195,-15.32615c-7.916233,-7.237623 -11.947631,-15.485901 -12.094431,-24.745352c-0.1468,-9.259625 3.078747,-19.104539 9.675449,-29.534568c6.597179,-10.430376 15.612863,-20.381501 27.047051,-29.853722c11.434904,-9.472741 24.921669,-17.933614 40.460774,-25.383833c15.540059,-7.450219 32.105572,-12.984821 49.697255,-16.603113c16.418713,-3.192926 33.790553,-4.41687 52.114804,-3.671831c18.325206,0.744519 35.697046,3.72485 52.115759,8.939778c16.418474,5.215448 31.005167,12.718686 43.759364,22.510234c12.753958,9.791895 22.062764,22.137888 27.926659,37.038153c4.104917,10.643145 4.764444,22.350484 1.979297,35.122189c-2.785624,12.771879 -8.649518,25.596603 -17.591682,38.474866c-8.942641,12.877743 -20.81723,25.223737 -35.623049,37.037633c-14.806536,11.81407 -31.885491,22.084349 -51.236151,30.812051c-19.35066,8.727182 -40.900697,15.32563 -64.649158,19.796039c-23.749177,4.469889 -49.257331,5.747371 -76.524463,3.831408c-17.298082,-1.276963 -29.465555,-4.629986 -36.502657,-10.057683c-7.036148,-5.428044 -9.748253,-11.920455 -8.136314,-19.476712c1.612893,-7.556777 7.183903,-15.592458 16.712313,-24.106871c9.529126,-8.514586 22.502449,-16.496555 38.921878,-23.946774c2.345462,-1.064367 4.397801,-2.12856 6.156779,-3.192926c1.759693,-1.064367 3.665232,-2.12856 5.717094,-3.192926c7.623588,-13.836072 14.953336,-27.299797 21.989722,-40.39083c7.036864,-13.090859 13.1206,-24.85139 18.251925,-35.281766c5.130609,-10.43003 8.868883,-19.157558 11.214345,-26.182065c2.345462,-7.024334 2.492262,-11.494223 0.439685,-13.410187c-2.052339,-1.915444 -0.879369,-2.926618 3.518671,-3.033349c4.397801,-0.106038 9.455368,0.638655 15.172462,2.235291c5.71781,1.59629 10.701619,4.150735 14.953336,7.662815c4.25124,3.512254 5.204367,7.929123 2.858189,13.25061c-2.345462,5.534775 -5.644052,12.026666 -9.895053,19.476885c-4.25124,7.450046 -8.649041,14.794227 -13.193881,22.031157c-4.544124,7.237623 -8.649041,13.730034 -12.314273,19.476885c-3.664755,5.747371 -5.936936,9.578779 -6.816544,11.494743c2.345462,-1.064367 4.764683,-1.968983 7.256945,-2.714022c2.491546,-0.745039 4.763966,-1.43654 6.816306,-2.075541c2.345462,-0.851251 4.39804,-1.59629 6.157017,-2.234771c7.623349,-2.12856 13.926928,-2.98033 18.911452,-2.554445c4.983809,0.425885 9.015684,1.543271 12.093715,3.352503c3.078747,1.809406 5.424209,4.044697 7.037103,6.70518c1.612654,2.661003 2.639063,5.10889 3.078747,7.343661c0.439685,2.235118 0.585769,4.044523 0.439685,5.428044c-0.1468,1.383521 -0.366643,1.756387 -0.659527,1.117386c-0.586485,-1.702848 -2.931947,-2.553925 -7.037103,-2.553925c-4.104917,0 -9.015684,0.531923 -14.732777,1.596117c-5.71781,1.064367 -11.947631,2.607464 -18.690894,4.629639c-6.744218,2.022522 -13.267639,4.2041 -19.571218,6.54543c-6.303817,2.341849 -11.947631,4.736544 -16.932155,7.184431c-4.983809,2.447887 -8.502241,4.629639 -10.554818,6.545603c-5.863894,6.811565 -10.554818,13.303629 -14.07325,19.476712c-3.518432,6.172737 -4.837725,10.855742 -3.958117,14.048668c0.586485,0.85177 0.366643,1.702848 -0.659766,2.554445c-1.02617,0.85177 -2.712105,0.638481 -5.057328,-0.638481c-3.518671,-1.702675 -5.644052,-4.895601 -6.377576,-9.578779c-0.732569,-4.683005 -0.219842,-10.21726 1.539851,-16.603113c-14.953336,8.727182 -25.801755,15.964632 -32.545018,21.711483c-6.743502,5.747371 -9.968334,10.323991 -9.675449,13.730034c0.292884,3.405522 3.591474,5.80039 9.895292,7.183911c6.303579,1.383694 14.879578,2.181752 25.727997,2.394868c16.418474,0.212596 33.49743,-1.543617 51.236151,-5.268467c17.737767,-3.725369 34.816722,-9.046856 51.235435,-15.964632c16.418713,-6.917776 31.664933,-15.166573 45.738183,-24.745352c14.073967,-9.578779 25.727997,-20.062347 34.963522,-31.450012c9.235526,-11.388185 15.466301,-23.521409 18.691133,-36.399672c3.225548,-12.877917 2.199139,-26.022315 -3.078031,-39.432501c-3.518671,-9.153067 -9.382565,-17.241767 -17.591921,-24.266101c-8.209356,-7.024854 -17.738483,-12.559109 -28.586902,-16.603633c-10.847703,-4.044004 -22.649249,-6.491891 -35.403207,-7.343488c-12.75348,-0.851251 -25.727281,0.319154 -38.921162,3.51208c-13.193881,3.192926 -26.094639,8.035681 -38.701797,14.528092c-12.607396,6.491891 -24.115342,13.782533 -34.524077,21.871233c-10.408496,8.089047 -19.277379,16.550094 -26.607366,25.383833c-7.329987,8.833566 -12.314273,17.295133 -14.95262,25.383833c-2.639063,8.088527 -2.492262,15.379169 0.439685,21.87158c2.931947,6.492411 9.382326,11.335166 19.35066,14.528092z" id="svg_36"/>
   <path stroke="null" fill="#565757" fill-rule="evenodd" d="m185.614241,241.191909c-5.883468,-3.865368 -8.825679,-9.205046 -8.825679,-16.01973c0,-6.81451 3.011911,-13.7309 9.035973,-20.749343c6.0243,-7.017923 14.850695,-13.37484 26.478229,-19.070579c11.628489,-5.695912 25.987941,-9.459053 43.079786,-11.289943c15.410684,-1.627304 30.330841,-2.084897 44.761186,-1.373298c14.429868,0.712119 28.790035,1.98371 43.079547,3.814254c0,-0.610066 0.280233,-1.475004 0.840939,-2.593776c0.560228,-1.118772 0.980339,-2.237717 1.260334,-3.356488c0.280711,-1.118772 0.280711,-2.13601 0,-3.051022c-0.279995,-0.915359 -0.980101,-1.678244 -2.101272,-2.288657c-0.559989,-0.203413 1.33075,-0.610066 5.673889,-1.220478c4.343139,-0.610066 9.106389,-0.661179 14.289751,-0.15282c5.184078,0.508879 9.736795,2.085417 13.659823,4.729786c3.922312,2.64437 5.183362,7.017923 3.782434,13.120834c3.923028,0.610066 7.915756,1.220478 11.978184,1.830544c4.062906,0.610586 8.055634,1.118772 11.978662,1.525944c2.521384,0.203413 5.253062,0.356059 8.195273,0.457766c2.941972,0.101707 5.954361,0.355713 9.036689,0.762712c19.052763,1.423891 37.825769,1.728838 56.318543,0.915532c18.492773,-0.813825 34.534102,-2.543183 48.123508,-5.187379c13.588929,-2.64437 23.816252,-6.204271 30.680774,-10.679531c6.865239,-4.47526 8.335867,-9.662812 4.413555,-15.561964c12.60859,10.781238 18.212063,20.087817 16.811612,27.919739c-1.400928,7.831749 -7.985933,13.93414 -19.753823,18.307867c-11.768367,4.373554 -27.879157,7.018443 -48.333325,7.933455c-20.454645,0.915532 -43.289842,-0.050593 -68.507737,-2.898722c-6.444412,-0.203413 -15.830796,-1.067832 -28.159391,-2.593776c-12.328595,-1.525425 -26.058118,-3.203669 -41.188092,-5.034733c-2.5221,4.679193 -5.533773,9.815632 -9.036689,15.409664c-3.5022,5.594205 -7.144517,11.289943 -10.927429,17.087388c-3.782434,5.797618 -7.424751,11.442763 -10.927667,16.934742c-3.5022,5.492499 -6.65399,10.476638 -9.456084,14.951898c10.927429,-0.407173 19.613229,-0.457766 26.058118,-0.15282c6.444412,0.30512 11.627773,1.271591 15.550801,2.898896c5.32324,2.440956 7.354812,5.136266 6.093762,8.086101c-1.260811,2.949316 -3.572378,5.644798 -6.9347,8.085755c-3.362322,2.441476 -6.794823,4.221427 -10.297023,5.340199c-3.5022,1.118772 -4.69355,0.864419 -3.572617,-0.762712c1.401167,-1.831064 0.910639,-3.000949 -1.470628,-3.509308c-2.381983,-0.508706 -5.814483,-0.762712 -10.297739,-0.762712c-4.48254,0 -9.316206,0.203413 -14.499568,0.610066c-5.183839,0.407173 -9.876912,0.712119 -14.079934,0.915359c-2.802094,4.27202 -6.233879,9.916819 -10.297023,16.935262c-4.063144,7.017923 -8.19575,14.544725 -12.398773,22.579887c-4.202545,8.035162 -8.195273,16.171856 -11.978184,24.410431c-3.782434,8.238921 -6.654706,15.765204 -8.615862,22.579887c-1.961156,6.81451 -2.731917,12.408715 -2.311806,16.782269c0.420111,4.373727 2.731917,6.662383 6.934939,6.865797c2.241867,0 2.311567,0.406653 0.210294,1.220478c-2.10175,0.813825 -5.043961,1.475004 -8.826156,1.983191c-3.782434,0.508879 -7.845339,0.559472 -12.188478,0.15282c-4.343139,-0.406653 -7.775162,-1.729357 -10.297023,-3.966901c-2.5221,-2.44113 -3.782434,-6.051971 -3.782434,-10.832351c0,-4.780206 0.700106,-10.119885 2.101272,-16.019037c1.400928,-5.899671 3.362084,-12.103769 5.884184,-18.613506c2.521384,-6.509564 5.113661,-12.663068 7.774923,-18.460686c2.662217,-5.797445 5.113661,-10.984824 7.355767,-15.561791c2.24115,-4.576967 3.922312,-7.984048 5.043245,-10.221765c1.400928,-3.051542 3.011673,-6.204617 4.832951,-9.459399c1.821755,-3.254782 3.712495,-6.61127 5.674367,-10.069465c-7.285111,0 -13.519706,0.101707 -18.703068,0.305466c-5.183362,0.20324 -9.596917,-0.20376 -13.239234,-1.220478c-2.521861,-0.610586 -4.623134,-1.831064 -6.304295,-3.661955c-1.681161,-1.830544 -2.591561,-3.915961 -2.731678,-6.255211c-0.140117,-2.339423 0.560228,-4.78038 2.101272,-7.323043c1.541045,-2.543183 4.132606,-4.933026 7.774923,-7.170743c-1.120217,1.830544 -1.821039,3.611015 -2.101272,5.339852c-0.279995,1.729184 0,3.254782 0.840939,4.576967c0.840223,1.322011 2.311567,2.33925 4.412839,3.051369c2.101272,0.712292 4.833667,0.864419 8.19575,0.457766c0.840223,0 4.203261,-0.457766 10.086729,-1.373125c5.884184,-0.915532 12.328595,-1.881657 19.333712,-2.898896c7.845339,-13.019128 15.760379,-25.936375 23.746551,-38.751743c7.985456,-12.815888 14.499329,-24.410951 19.54329,-34.785362c-14.290228,-1.627651 -27.739041,-2.797016 -40.347869,-3.509135c-12.60859,-0.712292 -22.555918,-0.559472 -29.841029,0.457766c-18.492057,2.440956 -33.413169,5.644625 -44.760708,9.611699c-11.34754,3.966901 -19.613707,8.034988 -24.797068,12.205302c-5.183362,4.170314 -7.565345,8.035162 -7.145234,11.595063c0.420827,3.559728 3.012389,6.153504 7.775639,7.781155c4.483256,1.627131 9.526501,2.186604 15.13069,1.678244c5.603473,-0.508879 11.137245,-1.627651 16.601318,-3.356488c5.463356,-1.729357 10.577018,-3.966901 15.340268,-6.712977c4.76325,-2.746423 8.686278,-5.492499 11.768367,-8.238921c3.082328,-2.746076 4.973783,-5.390272 5.673889,-7.933455c0.700822,-2.542663 -0.350411,-4.525853 -3.151789,-5.950265c-0.840939,-0.406653 0,-0.762712 2.521384,-1.067659c2.521861,-0.30512 5.744067,-0.356059 9.666379,-0.15282c3.923028,0.20376 7.986172,0.763232 12.188478,1.678244c4.203261,0.915532 7.495645,2.288657 9.876912,4.11972c2.381983,1.830544 3.432739,4.322614 3.152505,7.475689c-0.280711,3.152729 -2.941972,6.966983 -7.985217,11.442243c-5.0442,4.678673 -12.188717,8.74728 -21.434985,12.205475c-9.246506,3.458022 -18.983301,6.000685 -29.210624,7.628336c-10.226607,1.627304 -20.103518,2.13601 -29.630019,1.525598c-9.526501,-0.610066 -16.951968,-2.746076 -22.275923,-6.407511z" id="svg_35"/>
   <path stroke="null" fill="#b1b3b4" fill-rule="evenodd" d="m53.5451,149.028649c-17.298082,-2.98033 -29.905478,-8.08922 -37.82195,-15.32615c-7.916233,-7.237623 -11.947631,-15.485901 -12.094431,-24.745352c-0.1468,-9.259625 3.078747,-19.104539 9.675449,-29.534568c6.597179,-10.430376 15.612863,-20.381501 27.047051,-29.853722c11.434904,-9.472741 24.921669,-17.933614 40.460774,-25.383833c15.540059,-7.450219 32.105572,-12.984821 49.697255,-16.603113c16.418713,-3.192926 33.790553,-4.41687 52.114804,-3.671831c18.325206,0.744519 35.697046,3.72485 52.115759,8.939778c16.418474,5.215448 31.005167,12.718686 43.759364,22.510234c12.753958,9.791895 22.062764,22.137888 27.926659,37.038153c4.104917,10.643145 4.764444,22.350484 1.979297,35.122189c-2.785624,12.771879 -8.649518,25.596603 -17.591682,38.474866c-8.942641,12.877743 -20.81723,25.223737 -35.623049,37.037633c-14.806536,11.81407 -31.885491,22.084349 -51.236151,30.812051c-19.35066,8.727182 -40.900697,15.32563 -64.649158,19.796039c-23.749177,4.469889 -49.257331,5.747371 -76.524463,3.831408c-17.298082,-1.276963 -29.465555,-4.629986 -36.502657,-10.057683c-7.036148,-5.428044 -9.748253,-11.920455 -8.136314,-19.476712c1.612893,-7.556777 7.183903,-15.592458 16.712313,-24.106871c9.529126,-8.514586 22.502449,-16.496555 38.921878,-23.946774c2.345462,-1.064367 4.397801,-2.12856 6.156779,-3.192926c1.759693,-1.064367 3.665232,-2.12856 5.717094,-3.192926c7.623588,-13.836072 14.953336,-27.299797 21.989722,-40.39083c7.036864,-13.090859 13.1206,-24.85139 18.251925,-35.281766c5.130609,-10.43003 8.868883,-19.157558 11.214345,-26.182065c2.345462,-7.024334 2.492262,-11.494223 0.439685,-13.410187c-2.052339,-1.915444 -0.879369,-2.926618 3.518671,-3.033349c4.397801,-0.106038 9.455368,0.638655 15.172462,2.235291c5.71781,1.59629 10.701619,4.150735 14.953336,7.662815c4.25124,3.512254 5.204367,7.929123 2.858189,13.25061c-2.345462,5.534775 -5.644052,12.026666 -9.895053,19.476885c-4.25124,7.450046 -8.649041,14.794227 -13.193881,22.031157c-4.544124,7.237623 -8.649041,13.730034 -12.314273,19.476885c-3.664755,5.747371 -5.936936,9.578779 -6.816544,11.494743c2.345462,-1.064367 4.764683,-1.968983 7.256945,-2.714022c2.491546,-0.745039 4.763966,-1.43654 6.816306,-2.075541c2.345462,-0.851251 4.39804,-1.59629 6.157017,-2.234771c7.623349,-2.12856 13.926928,-2.98033 18.911452,-2.554445c4.983809,0.425885 9.015684,1.543271 12.093715,3.352503c3.078747,1.809406 5.424209,4.044697 7.037103,6.70518c1.612654,2.661003 2.639063,5.10889 3.078747,7.343661c0.439685,2.235118 0.585769,4.044523 0.439685,5.428044c-0.1468,1.383521 -0.366643,1.756387 -0.659527,1.117386c-0.586485,-1.702848 -2.931947,-2.553925 -7.037103,-2.553925c-4.104917,0 -9.015684,0.531923 -14.732777,1.596117c-5.71781,1.064367 -11.947631,2.607464 -18.690894,4.629639c-6.744218,2.022522 -13.267639,4.2041 -19.571218,6.54543c-6.303817,2.341849 -11.947631,4.736544 -16.932155,7.184431c-4.983809,2.447887 -8.502241,4.629639 -10.554818,6.545603c-5.863894,6.811565 -10.554818,13.303629 -14.07325,19.476712c-3.518432,6.172737 -4.837725,10.855742 -3.958117,14.048668c0.586485,0.85177 0.366643,1.702848 -0.659766,2.554445c-1.02617,0.85177 -2.712105,0.638481 -5.057328,-0.638481c-3.518671,-1.702675 -5.644052,-4.895601 -6.377576,-9.578779c-0.732569,-4.683005 -0.219842,-10.21726 1.539851,-16.603113c-14.953336,8.727182 -25.801755,15.964632 -32.545018,21.711483c-6.743502,5.747371 -9.968334,10.323991 -9.675449,13.730034c0.292884,3.405522 3.591474,5.80039 9.895292,7.183911c6.303579,1.383694 14.879578,2.181752 25.727997,2.394868c16.418474,0.212596 33.49743,-1.543617 51.236151,-5.268467c17.737767,-3.725369 34.816722,-9.046856 51.235435,-15.964632c16.418713,-6.917776 31.664933,-15.166573 45.738183,-24.745352c14.073967,-9.578779 25.727997,-20.062347 34.963522,-31.450012c9.235526,-11.388185 15.466301,-23.521409 18.691133,-36.399672c3.225548,-12.877917 2.199139,-26.022315 -3.078031,-39.432501c-3.518671,-9.153067 -9.382565,-17.241767 -17.591921,-24.266101c-8.209356,-7.024854 -17.738483,-12.559109 -28.586902,-16.603633c-10.847703,-4.044004 -22.649249,-6.491891 -35.403207,-7.343488c-12.75348,-0.851251 -25.727281,0.319154 -38.921162,3.51208c-13.193881,3.192926 -26.094639,8.035681 -38.701797,14.528092c-12.607396,6.491891 -24.115342,13.782533 -34.524077,21.871233c-10.408496,8.089047 -19.277379,16.550094 -26.607366,25.383833c-7.329987,8.833566 -12.314273,17.295133 -14.95262,25.383833c-2.639063,8.088527 -2.492262,15.379169 0.439685,21.87158c2.931947,6.492411 9.382326,11.335166 19.35066,14.528092z" id="svg_34"/>
   <path stroke="null" fill="#565757" fill-rule="evenodd" d="m185.614241,241.191909c-5.883468,-3.865368 -8.825679,-9.205046 -8.825679,-16.01973c0,-6.81451 3.011911,-13.7309 9.035973,-20.749343c6.0243,-7.017923 14.850695,-13.37484 26.478229,-19.070579c11.628489,-5.695912 25.987941,-9.459053 43.079786,-11.289943c15.410684,-1.627304 30.330841,-2.084897 44.761186,-1.373298c14.429868,0.712119 28.790035,1.98371 43.079547,3.814254c0,-0.610066 0.280233,-1.475004 0.840939,-2.593776c0.560228,-1.118772 0.980339,-2.237717 1.260334,-3.356488c0.280711,-1.118772 0.280711,-2.13601 0,-3.051022c-0.279995,-0.915359 -0.980101,-1.678244 -2.101272,-2.288657c-0.559989,-0.203413 1.33075,-0.610066 5.673889,-1.220478c4.343139,-0.610066 9.106389,-0.661179 14.289751,-0.15282c5.184078,0.508879 9.736795,2.085417 13.659823,4.729786c3.922312,2.64437 5.183362,7.017923 3.782434,13.120834c3.923028,0.610066 7.915756,1.220478 11.978184,1.830544c4.062906,0.610586 8.055634,1.118772 11.978662,1.525944c2.521384,0.203413 5.253062,0.356059 8.195273,0.457766c2.941972,0.101707 5.954361,0.355713 9.036689,0.762712c19.052763,1.423891 37.825769,1.728838 56.318543,0.915532c18.492773,-0.813825 34.534102,-2.543183 48.123508,-5.187379c13.588929,-2.64437 23.816252,-6.204271 30.680774,-10.679531c6.865239,-4.47526 8.335867,-9.662812 4.413555,-15.561964c12.60859,10.781238 18.212063,20.087817 16.811612,27.919739c-1.400928,7.831749 -7.985933,13.93414 -19.753823,18.307867c-11.768367,4.373554 -27.879157,7.018443 -48.333325,7.933455c-20.454645,0.915532 -43.289842,-0.050593 -68.507737,-2.898722c-6.444412,-0.203413 -15.830796,-1.067832 -28.159391,-2.593776c-12.328595,-1.525425 -26.058118,-3.203669 -41.188092,-5.034733c-2.5221,4.679193 -5.533773,9.815632 -9.036689,15.409664c-3.5022,5.594205 -7.144517,11.289943 -10.927429,17.087388c-3.782434,5.797618 -7.424751,11.442763 -10.927667,16.934742c-3.5022,5.492499 -6.65399,10.476638 -9.456084,14.951898c10.927429,-0.407173 19.613229,-0.457766 26.058118,-0.15282c6.444412,0.30512 11.627773,1.271591 15.550801,2.898896c5.32324,2.440956 7.354812,5.136266 6.093762,8.086101c-1.260811,2.949316 -3.572378,5.644798 -6.9347,8.085755c-3.362322,2.441476 -6.794823,4.221427 -10.297023,5.340199c-3.5022,1.118772 -4.69355,0.864419 -3.572617,-0.762712c1.401167,-1.831064 0.910639,-3.000949 -1.470628,-3.509308c-2.381983,-0.508706 -5.814483,-0.762712 -10.297739,-0.762712c-4.48254,0 -9.316206,0.203413 -14.499568,0.610066c-5.183839,0.407173 -9.876912,0.712119 -14.079934,0.915359c-2.802094,4.27202 -6.233879,9.916819 -10.297023,16.935262c-4.063144,7.017923 -8.19575,14.544725 -12.398773,22.579887c-4.202545,8.035162 -8.195273,16.171856 -11.978184,24.410431c-3.782434,8.238921 -6.654706,15.765204 -8.615862,22.579887c-1.961156,6.81451 -2.731917,12.408715 -2.311806,16.782269c0.420111,4.373727 2.731917,6.662383 6.934939,6.865797c2.241867,0 2.311567,0.406653 0.210294,1.220478c-2.10175,0.813825 -5.043961,1.475004 -8.826156,1.983191c-3.782434,0.508879 -7.845339,0.559472 -12.188478,0.15282c-4.343139,-0.406653 -7.775162,-1.729357 -10.297023,-3.966901c-2.5221,-2.44113 -3.782434,-6.051971 -3.782434,-10.832351c0,-4.780206 0.700106,-10.119885 2.101272,-16.019037c1.400928,-5.899671 3.362084,-12.103769 5.884184,-18.613506c2.521384,-6.509564 5.113661,-12.663068 7.774923,-18.460686c2.662217,-5.797445 5.113661,-10.984824 7.355767,-15.561791c2.24115,-4.576967 3.922312,-7.984048 5.043245,-10.221765c1.400928,-3.051542 3.011673,-6.204617 4.832951,-9.459399c1.821755,-3.254782 3.712495,-6.61127 5.674367,-10.069465c-7.285111,0 -13.519706,0.101707 -18.703068,0.305466c-5.183362,0.20324 -9.596917,-0.20376 -13.239234,-1.220478c-2.521861,-0.610586 -4.623134,-1.831064 -6.304295,-3.661955c-1.681161,-1.830544 -2.591561,-3.915961 -2.731678,-6.255211c-0.140117,-2.339423 0.560228,-4.78038 2.101272,-7.323043c1.541045,-2.543183 4.132606,-4.933026 7.774923,-7.170743c-1.120217,1.830544 -1.821039,3.611015 -2.101272,5.339852c-0.279995,1.729184 0,3.254782 0.840939,4.576967c0.840223,1.322011 2.311567,2.33925 4.412839,3.051369c2.101272,0.712292 4.833667,0.864419 8.19575,0.457766c0.840223,0 4.203261,-0.457766 10.086729,-1.373125c5.884184,-0.915532 12.328595,-1.881657 19.333712,-2.898896c7.845339,-13.019128 15.760379,-25.936375 23.746551,-38.751743c7.985456,-12.815888 14.499329,-24.410951 19.54329,-34.785362c-14.290228,-1.627651 -27.739041,-2.797016 -40.347869,-3.509135c-12.60859,-0.712292 -22.555918,-0.559472 -29.841029,0.457766c-18.492057,2.440956 -33.413169,5.644625 -44.760708,9.611699c-11.34754,3.966901 -19.613707,8.034988 -24.797068,12.205302c-5.183362,4.170314 -7.565345,8.035162 -7.145234,11.595063c0.420827,3.559728 3.012389,6.153504 7.775639,7.781155c4.483256,1.627131 9.526501,2.186604 15.13069,1.678244c5.603473,-0.508879 11.137245,-1.627651 16.601318,-3.356488c5.463356,-1.729357 10.577018,-3.966901 15.340268,-6.712977c4.76325,-2.746423 8.686278,-5.492499 11.768367,-8.238921c3.082328,-2.746076 4.973783,-5.390272 5.673889,-7.933455c0.700822,-2.542663 -0.350411,-4.525853 -3.151789,-5.950265c-0.840939,-0.406653 0,-0.762712 2.521384,-1.067659c2.521861,-0.30512 5.744067,-0.356059 9.666379,-0.15282c3.923028,0.20376 7.986172,0.763232 12.188478,1.678244c4.203261,0.915532 7.495645,2.288657 9.876912,4.11972c2.381983,1.830544 3.432739,4.322614 3.152505,7.475689c-0.280711,3.152729 -2.941972,6.966983 -7.985217,11.442243c-5.0442,4.678673 -12.188717,8.74728 -21.434985,12.205475c-9.246506,3.458022 -18.983301,6.000685 -29.210624,7.628336c-10.226607,1.627304 -20.103518,2.13601 -29.630019,1.525598c-9.526501,-0.610066 -16.951968,-2.746076 -22.275923,-6.407511z" id="svg_33"/>
   <path stroke="null" fill="#b1c900" fill-rule="evenodd" d="m382.192425,313.876724a13.099356,9.510339 0 0 1 13.099356,9.510339a13.099356,9.510339 0 1 1 -13.099356,-9.510339z" id="svg_32"/>
   <path stroke="null" fill="#b1c900" fill-rule="evenodd" d="m421.050808,313.876724a13.099356,9.510339 0 0 1 13.099595,9.510339a13.099356,9.510339 0 1 1 -13.099595,-9.510339z" id="svg_31"/>
   <path stroke="null" fill="#b1c900" fill-rule="evenodd" d="m382.192425,342.088242a13.099356,9.510339 0 0 1 13.099356,9.510339a13.099356,9.510339 0 1 1 -13.099356,-9.510339z" id="svg_30"/>
   <path stroke="null" fill="#b1c900" fill-rule="evenodd" d="m420.610885,348.599538a3.693637,2.681621 0 0 1 3.693637,2.681621a3.693637,2.681621 0 1 1 -3.693637,-2.681621z" id="svg_29"/>
   <path stroke="null" fill="#b1c900" fill-rule="evenodd" d="m420.610885,376.938752a3.693637,2.681621 0 0 1 3.693637,2.681621a3.693637,2.681621 0 1 1 -3.693637,-2.681621z" id="svg_28"/>
   <path stroke="null" fill="#b1c900" fill-rule="evenodd" d="m382.280027,376.938752a3.693637,2.681621 0 0 1 3.693637,2.681621a3.693637,2.681621 0 1 1 -3.693637,-2.681621z" id="svg_27"/>
   <path stroke="null" fill="#b1c900" fill-rule="evenodd" d="m91.416461,275.651187a13.099356,9.510339 0 0 1 13.099595,9.510339a13.099356,9.510339 0 1 1 -13.099595,-9.510339z" id="svg_26"/>
   <path stroke="null" fill="#b1c900" fill-rule="evenodd" d="m130.274845,275.651187a13.099356,9.510339 0 0 1 13.099595,9.510339a13.099356,9.510339 0 1 1 -13.099595,-9.510339z" id="svg_25"/>
   <path stroke="null" fill="#b1c900" fill-rule="evenodd" d="m130.274845,304.373489a13.099356,9.510339 0 0 1 13.099595,9.510339a13.099356,9.510339 0 1 1 -13.099595,-9.510339z" id="svg_24"/>
   <path stroke="null" fill="#b1c900" fill-rule="evenodd" d="m91.635348,311.426065a3.693637,2.681621 0 0 1 3.693637,2.681621a3.693637,2.681621 0 1 1 -3.693637,-2.681621z" id="svg_23"/>
   <path stroke="null" fill="#b1c900" fill-rule="evenodd" d="m91.635348,339.797679a3.693637,2.681621 0 0 1 3.693637,2.681621a3.693637,2.681621 0 1 1 -3.693637,-2.681621z" id="svg_22"/>
   <path stroke="null" fill="#b1c900" fill-rule="evenodd" d="m130.538608,339.797679a3.693637,2.681621 0 0 1 3.693637,2.681621a3.693637,2.681621 0 1 1 -3.693637,-2.681621z" id="svg_21"/>
  </g>
 </g>
</svg>